<svg width="128" height="142" viewBox="0 0 128 142" fill="none"
    xmlns="http://www.w3.org/2000/svg">
    <path d="M128 96.343C128 99.7031 127.114 103.004 125.431 105.912C123.748 108.82 121.328 111.233 118.414 112.908L73.5188 138.705C70.6226 140.369 67.3407 141.245 64.0005 141.245C60.6602 141.245 57.3783 140.369 54.4822 138.705L9.58663 112.908C6.67311 111.233 4.25265 108.821 2.5695 105.912C0.886347 103.004 4.37839e-05 99.7032 2.98023e-06 96.343V44.9023C-5.27574e-05 41.5421 0.886112 38.2414 2.56909 35.3331C4.25207 32.4249 6.67233 30.0119 9.58568 28.3377L54.4812 2.53998C57.3774 0.875778 60.6593 0 63.9995 0C67.3398 0 70.6217 0.875778 73.5179 2.53998L118.413 28.3377C121.327 30.0118 123.747 32.4247 125.43 35.333C127.114 38.2413 128 41.542 128 44.9023L128 96.343Z" fill="#1D86CC"/>
    <path d="M58.4662 9.72786L14.1439 35.3279C12.4588 36.3007 11.0595 37.7002 10.087 39.3854C9.1144 41.0706 8.60283 42.9822 8.60352 44.9279L8.63127 96.1842C8.63251 98.127 9.14448 100.035 10.1159 101.718C11.0873 103.4 12.4839 104.798 14.1658 105.77L58.5399 131.421C60.2243 132.394 62.1349 132.906 64.08 132.906C66.025 132.906 67.9358 132.394 69.6203 131.421L113.943 105.829C115.628 104.856 117.027 103.457 118 101.772C118.972 100.086 119.484 98.1748 119.483 96.2291L119.455 44.9728C119.454 43.0302 118.942 41.1221 117.97 39.4399C116.999 37.7576 115.602 36.3603 113.921 35.3881L69.5468 9.7355C67.8624 8.76297 65.9516 8.25098 64.0065 8.25098C62.0615 8.25098 60.1506 8.76297 58.4662 9.7355V9.72786Z" fill="white"/>
    <path d="M43.8384 114.09C43.9067 113.756 44.0561 113.444 44.2738 113.182C57.5323 90.6842 70.7932 68.1877 84.0562 45.6922C84.2406 45.3798 84.4114 45.0589 84.5681 44.779C84.4516 44.5755 84.3189 44.6175 84.2061 44.6175C78.5398 44.6376 72.8733 44.6739 67.2031 44.6672C66.9608 44.6629 66.723 44.7329 66.5217 44.8678C66.3203 45.0027 66.1651 45.1961 66.0769 45.4219C61.8026 52.4905 57.5228 59.5573 53.2376 66.6221C44.1598 81.5994 35.0811 96.5763 26.0014 111.553C25.9212 111.686 25.837 111.816 25.7654 111.952C25.6049 112.262 25.4225 112.31 25.0968 112.121C23.6878 111.289 22.2636 110.484 20.7668 109.623L61.1728 44.8191C61.0859 44.5555 60.9071 44.6214 60.7696 44.6166C58.6041 44.5517 56.4378 44.4581 54.2742 44.439C51.2348 44.3489 48.2057 44.8371 45.3484 45.8775C42.7463 46.8411 40.535 48.6364 39.0574 50.9851C31.6748 62.5 24.2642 73.9971 16.8256 85.4763C16.709 85.6578 16.5849 85.8355 16.4645 86.015C16.0385 86.015 16.1014 85.6635 16.0623 85.418C16.0246 85.0483 16.0158 84.6763 16.0357 84.3052C16.0357 71.6084 16.0796 58.9115 15.9965 46.2157C15.9298 45.1217 16.1927 44.0329 16.7516 43.0901C17.3105 42.1473 18.1397 41.394 19.1315 40.9275C28.8949 35.3614 38.5951 29.6808 48.3269 24.0583C52.6704 21.5489 57.0272 19.0634 61.3391 16.5015C62.1502 15.9573 63.1047 15.6667 64.0814 15.6667C65.0581 15.6667 66.0128 15.9573 66.8239 16.5015C74.7523 21.1544 82.7512 25.6993 90.7206 30.2863C96.7315 33.7474 102.745 37.2025 108.762 40.6515C109.193 40.897 109.612 41.1596 110.045 41.4013C110.748 41.7752 111.33 42.3427 111.722 43.0367C112.113 43.7307 112.297 44.5222 112.253 45.3178C112.265 59.129 112.265 72.9403 112.253 86.7515C112.281 87.0913 112.244 87.4333 112.144 87.7593C111.667 88.2206 111.494 87.7029 111.32 87.4574C110.604 86.4497 109.961 85.3884 109.295 84.3453C103.964 75.9999 98.6143 67.6655 93.2472 59.3424C91.4437 56.5292 89.6174 53.7275 87.833 50.9029C87.4165 50.2438 87.3411 50.2343 86.9247 50.9421C84.2322 55.4979 81.5414 60.0546 78.8521 64.6123C78.7046 64.8657 78.641 65.1592 78.6705 65.4509C78.7 65.7426 78.821 66.0175 79.0163 66.2362C81.2337 69.8138 83.4469 73.394 85.656 76.9767L96.9823 95.2979C98.5106 97.7739 100.041 100.248 101.575 102.719C101.859 103.05 102.02 103.471 102.028 103.907C101.721 104.517 101.082 104.688 100.55 104.965C99.6768 105.595 98.7171 106.096 97.7006 106.452C97.1523 106.315 96.9583 105.821 96.6985 105.416C93.1918 99.946 89.7302 94.4487 86.2465 88.9657C82.6634 83.3299 79.0976 77.6731 75.4993 72.043C75.0379 71.3208 74.9642 71.316 74.5305 72.043C71.4003 77.3091 68.313 82.6001 65.1751 87.8605C65.0147 88.1071 64.9357 88.3978 64.9496 88.6916C64.9635 88.9855 65.0696 89.2675 65.2526 89.4978C69.4794 96.0124 73.6088 102.584 77.7908 109.131C78.9571 110.956 80.132 112.774 81.2773 114.612C81.5008 114.969 81.8065 115.325 81.604 115.808C80.5061 116.663 79.3216 117.399 78.0697 118.005C74.1635 120.278 70.2554 122.548 66.3454 124.814C65.7191 125.219 64.9892 125.434 64.2437 125.434C63.4982 125.434 62.7686 125.219 62.1422 124.814C56.3829 121.483 50.6132 118.166 44.8328 114.864C44.4346 114.706 44.0896 114.437 43.8384 114.09V114.09Z" fill="#2D374B"/>
    <path d="M111.974 87.8993C111.983 87.5583 112 87.2183 112 86.8782C112 73.0981 112.004 59.3187 112.013 45.5399C112.062 44.7043 111.866 43.8726 111.449 43.1468C111.032 42.4211 110.412 41.8328 109.665 41.4544C95.1956 33.1593 80.7363 24.8453 66.2876 16.5126C65.637 16.0893 64.8781 15.863 64.1019 15.861C63.3258 15.859 62.5656 16.0813 61.9128 16.5011C53.8889 21.1645 45.8547 25.8159 37.8104 30.4551C31.3563 34.1913 24.9027 37.9284 18.4492 41.6665C17.7599 42.0241 17.1885 42.573 16.8037 43.2474C16.4189 43.9218 16.237 44.693 16.2799 45.4683C16.313 58.6905 16.3317 71.9127 16.3361 85.1349C16.3361 85.4291 16.2167 85.7567 16.4737 86.0166C14.9453 88.5613 13.2661 91.0066 11.6565 93.4969C10.8503 94.7438 10.0409 95.9885 9.22837 97.2309C9.09846 97.4296 8.94848 97.613 8.69152 97.9674C8.67242 97.5509 8.65234 97.3207 8.65234 97.0914C8.65234 79.6548 8.65554 62.2181 8.66191 44.7815C8.61934 42.8462 9.11067 40.9367 10.0819 39.2623C11.0532 37.5878 12.4667 36.2133 14.1677 35.2894C19.7787 31.9576 25.4642 28.75 31.1125 25.4774C35.8781 22.7178 40.6275 19.9371 45.3902 17.1727C49.832 14.5936 54.2288 11.9371 58.7461 9.49839C60.4762 8.535 62.4332 8.05387 64.4128 8.10529C66.3924 8.15671 68.3218 8.73878 69.9996 9.79069C73.6294 11.8502 77.244 13.9478 80.8634 16.0283C84.2678 17.9878 87.672 19.9486 91.0758 21.9106C94.2128 23.7166 97.3506 25.5206 100.49 27.3228C103.602 29.1104 106.714 30.897 109.827 32.6826C111.195 33.4688 112.561 34.2559 113.921 35.0563C115.421 35.9054 116.712 37.0815 117.696 38.4973C118.68 39.9132 119.332 41.5325 119.604 43.235C119.669 43.7267 119.689 44.2231 119.664 44.7184C119.664 61.8761 119.666 79.0342 119.67 96.1926C119.679 97.8229 119.327 99.435 118.64 100.913C117.953 102.392 116.947 103.7 115.695 104.744C114.98 105.289 114.212 105.759 113.402 106.149C108.753 108.861 104.098 111.562 99.4359 114.252C94.4821 117.118 89.5259 119.979 84.5676 122.835C79.8036 125.595 75.0449 128.365 70.2911 131.145C69.1075 131.941 67.7754 132.491 66.3746 132.76C64.0475 133.215 61.6362 132.908 59.497 131.885C57.1261 130.614 54.8165 129.235 52.479 127.895C49.3402 126.095 46.2029 124.29 43.0672 122.482C42.1814 121.973 41.2948 121.466 40.4077 120.962C40.082 120.777 39.8595 120.589 40.1136 120.164C41.2866 118.199 42.4414 116.223 43.6087 114.254C43.6498 114.182 43.7548 114.149 43.8303 114.096C44.9179 114.604 45.971 115.184 46.9825 115.83C52.1045 118.759 57.2184 121.703 62.3244 124.661C62.9143 125.034 63.5995 125.229 64.2974 125.221C64.9953 125.214 65.6761 125.005 66.258 124.619C71.1076 121.773 75.9821 118.969 80.8461 116.15C81.0868 116.011 81.3334 115.884 81.5779 115.752C82.0365 115.166 82.6491 114.719 83.347 114.461C87.7411 111.943 92.1025 109.376 96.4956 106.864C96.8624 106.655 97.1929 106.332 97.6705 106.387L101.975 103.894C102.238 103.343 102.798 103.166 103.268 102.894C105.434 101.644 107.579 100.359 109.764 99.149C110.396 98.8163 110.919 98.3081 111.269 97.6856C111.62 97.0631 111.783 96.3526 111.74 95.6395C111.762 93.4482 111.74 91.256 111.75 89.0637C111.674 88.6613 111.755 88.245 111.974 87.8993V87.8993Z" fill="#96BEDC"/>
    <path d="M111.974 87.897C111.986 90.6175 112.046 93.3418 111.985 96.0584C112.002 96.6949 111.842 97.3237 111.524 97.875C111.205 98.4263 110.74 98.8787 110.181 99.182C107.441 100.733 104.751 102.372 101.987 103.882C100.887 101.876 99.6176 99.9653 98.416 98.0166C92.1752 87.9014 85.9275 77.792 79.6727 67.6883C79.2983 67.0826 78.9551 66.4541 78.5368 65.8819C78.4006 65.7177 78.3262 65.5111 78.3262 65.2978C78.3262 65.0845 78.4006 64.8779 78.5368 64.7137C80.0298 62.2167 81.4982 59.7055 82.9759 57.198L87.0776 50.2401C87.1504 50.0747 87.2782 49.9396 87.4395 49.858C88.1531 50.9575 88.8723 52.0665 89.5906 53.1765C93.9057 59.8949 98.2199 66.6133 102.533 73.3317C105.458 77.8901 108.383 82.4487 111.307 87.0077C111.467 87.346 111.694 87.6485 111.974 87.897V87.897Z" fill="#28A0F0"/>
    <path d="M97.6829 106.375C95.9014 107.544 94.0121 108.539 92.1762 109.623C88.8472 111.58 85.4972 113.501 82.1568 115.436C81.9658 115.544 81.7747 115.645 81.5904 115.75C81.5481 115.441 81.4152 115.151 81.2084 114.918C78.2338 110.243 75.2589 105.569 72.2837 100.896C69.839 97.0584 67.387 93.2247 64.9283 89.3949C64.7618 89.1963 64.6653 88.9484 64.6536 88.6895C64.6418 88.4306 64.7156 88.175 64.8634 87.9621C68.1501 82.4269 71.423 76.8834 74.6822 71.3316C74.7596 71.2036 74.8216 71.0546 75.0136 71.0135C75.2811 71.0737 75.346 71.3412 75.4731 71.5408C81.3954 80.8696 87.3179 90.1989 93.2403 99.5289C94.5003 101.515 95.7544 103.506 97.022 105.488C97.1834 105.823 97.407 106.125 97.6811 106.377L97.6829 106.375Z" fill="#28A0F0"/>
</svg>
